<svg width="35" height="37" viewBox="0 0 35 37" fill="none" xmlns="http://www.w3.org/2000/svg">
<g id="Arrow / Arrow_Left_Right" filter="url(#filter0_d_65_977)">
<path id="Vector" d="M16.6716 23.9286C17.0621 23.5381 17.0621 22.9049 16.6716 22.5144C16.281 22.1238 15.6479 22.1238 15.2573 22.5144L16.6716 23.9286ZM11.6104 27.5755L10.9033 28.2826C11.2938 28.6731 11.927 28.6731 12.3175 28.2826L11.6104 27.5755ZM7.96351 22.5144C7.57298 22.1238 6.93982 22.1238 6.54929 22.5144C6.15877 22.9049 6.15877 23.5381 6.54929 23.9286L7.96351 22.5144ZM12.6104 7.25671C12.6104 6.70443 12.1627 6.25671 11.6104 6.25671C11.0581 6.25671 10.6104 6.70443 10.6104 7.25671L12.6104 7.25671ZM18.16 10.9036C17.7695 11.2942 17.7695 11.9273 18.16 12.3178C18.5506 12.7084 19.1837 12.7084 19.5742 12.3178L18.16 10.9036ZM23.2212 7.25671L23.9283 6.54961C23.5378 6.15908 22.9046 6.15908 22.5141 6.54961L23.2212 7.25671ZM26.8681 12.3178C27.2586 12.7084 27.8918 12.7084 28.2823 12.3178C28.6728 11.9273 28.6728 11.2942 28.2823 10.9036L26.8681 12.3178ZM22.2212 27.5755C22.2212 28.1278 22.6689 28.5755 23.2212 28.5755C23.7735 28.5755 24.2212 28.1278 24.2212 27.5755L22.2212 27.5755ZM15.2573 22.5144L10.9033 26.8684L12.3175 28.2826L16.6716 23.9286L15.2573 22.5144ZM12.3175 26.8684L7.96351 22.5144L6.54929 23.9286L10.9033 28.2826L12.3175 26.8684ZM10.6104 7.25671L10.6104 27.5755L12.6104 27.5755L12.6104 7.25671L10.6104 7.25671ZM19.5742 12.3178L23.9283 7.96382L22.5141 6.54961L18.16 10.9036L19.5742 12.3178ZM22.5141 7.96382L26.8681 12.3178L28.2823 10.9036L23.9283 6.54961L22.5141 7.96382ZM24.2212 27.5755L24.2212 7.25671L22.2212 7.25671L22.2212 27.5755L24.2212 27.5755Z" fill="white"/>
</g>
<defs>
<filter id="filter0_d_65_977" x="-4" y="0" width="42.832" height="42.8322" filterUnits="userSpaceOnUse" color-interpolation-filters="sRGB">
<feFlood flood-opacity="0" result="BackgroundImageFix"/>
<feColorMatrix in="SourceAlpha" type="matrix" values="0 0 0 0 0 0 0 0 0 0 0 0 0 0 0 0 0 0 127 0" result="hardAlpha"/>
<feOffset dy="4"/>
<feGaussianBlur stdDeviation="2"/>
<feComposite in2="hardAlpha" operator="out"/>
<feColorMatrix type="matrix" values="0 0 0 0 0 0 0 0 0 0 0 0 0 0 0 0 0 0 0.25 0"/>
<feBlend mode="normal" in2="BackgroundImageFix" result="effect1_dropShadow_65_977"/>
<feBlend mode="normal" in="SourceGraphic" in2="effect1_dropShadow_65_977" result="shape"/>
</filter>
</defs>
</svg>
