<svg width="68" height="67" viewBox="0 0 68 67" fill="none" xmlns="http://www.w3.org/2000/svg">
<path d="M34.1308 0.0202637C15.8374 0.0202637 0.954102 14.9736 0.954102 33.3536C0.954102 51.7336 15.9074 66.6869 34.2874 66.6869C52.6674 66.6869 67.6208 51.7336 67.6208 33.3536C67.6208 14.9736 52.5974 0.0202637 34.1308 0.0202637ZM34.2874 60.0203C19.5841 60.0203 7.62077 48.0569 7.62077 33.3536C7.62077 18.6503 19.5108 6.68693 34.1308 6.68693C48.9241 6.68693 60.9541 18.6503 60.9541 33.3536C60.9541 48.0569 48.9908 60.0203 34.2874 60.0203Z" fill="#EC5454"/>
<path d="M30.9541 16.6868H37.6208V40.0201H30.9541V16.6868ZM30.9541 43.3534H37.6208V50.0201H30.9541V43.3534Z" fill="#EC5454"/>
</svg>
