<svg width="164" height="164" viewBox="0 0 164 164" fill="none" xmlns="http://www.w3.org/2000/svg">
<g id="user-circle">
<g id="Icon">
<path d="M82 92.2498C97.0957 92.2498 109.333 80.0123 109.333 64.9165C109.333 49.8207 97.0957 37.5832 82 37.5832C66.9042 37.5832 54.6666 49.8207 54.6666 64.9165C54.6666 80.0123 66.9042 92.2498 82 92.2498Z" fill="#007B82"/>
<path d="M82 150.333C119.739 150.333 150.333 119.739 150.333 81.9998C150.333 44.2604 119.739 13.6665 82 13.6665C44.2605 13.6665 13.6666 44.2604 13.6666 81.9998C13.6666 119.739 44.2605 150.333 82 150.333Z" fill="#007B82"/>
<path d="M36.328 132.829C40.4849 123.035 50.1903 116.166 61.5 116.166H102.5C113.81 116.166 123.515 123.035 127.672 132.829M109.333 64.9165C109.333 80.0123 97.0957 92.2498 82 92.2498C66.9042 92.2498 54.6666 80.0123 54.6666 64.9165C54.6666 49.8207 66.9042 37.5832 82 37.5832C97.0957 37.5832 109.333 49.8207 109.333 64.9165ZM150.333 81.9998C150.333 119.739 119.739 150.333 82 150.333C44.2605 150.333 13.6666 119.739 13.6666 81.9998C13.6666 44.2604 44.2605 13.6665 82 13.6665C119.739 13.6665 150.333 44.2604 150.333 81.9998Z" stroke="white" stroke-width="1.5" stroke-linecap="round" stroke-linejoin="round"/>
</g>
</g>
</svg>
