<svg width="88" height="88" viewBox="0 0 88 88" fill="none" xmlns="http://www.w3.org/2000/svg">
<path d="M65.6378 18.3278C66.3929 20.1539 67.8421 21.6054 69.667 22.3632L76.066 25.0138C77.8922 25.7703 79.3431 27.2212 80.0995 29.0475C80.8559 30.8737 80.8559 32.9256 80.0995 34.7519L77.4509 41.1465C76.6941 42.9736 76.693 45.0276 77.4532 46.8538L80.0973 53.2465C80.4723 54.151 80.6654 55.1206 80.6655 56.0997C80.6657 57.0789 80.4729 58.0485 80.0982 58.9531C79.7235 59.8578 79.1743 60.6797 78.4818 61.372C77.7893 62.0642 76.9672 62.6132 76.0625 62.9877L69.6681 65.6364C67.8421 66.3915 66.3906 67.8408 65.6329 69.6658L62.9823 76.065C62.2259 77.8912 60.775 79.3422 58.9488 80.0986C57.1227 80.8551 55.0708 80.8551 53.2446 80.0986L46.8502 77.4499C45.024 76.6953 42.9729 76.6968 41.1478 77.4542L34.7488 80.101C32.9236 80.8557 30.8735 80.8551 29.0488 80.0992C27.2242 79.3434 25.7741 77.8942 25.0171 76.0699L22.3658 69.6688C21.6108 67.8427 20.1615 66.3912 18.3366 65.6334L11.9376 62.9827C10.1122 62.2266 8.66177 60.7766 7.90506 58.9514C7.14836 57.1262 7.14733 55.0752 7.90221 53.2492L10.5509 46.8546C11.3054 45.0283 11.3039 42.9771 10.5466 41.152L7.90173 34.7481C7.52674 33.8436 7.33365 32.8741 7.3335 31.8949C7.33334 30.9157 7.52612 29.9461 7.90081 29.0415C8.27551 28.1369 8.82478 27.3149 9.51724 26.6227C10.2097 25.9304 11.0318 25.3814 11.9365 25.007L18.3309 22.3582C20.1554 21.6038 21.6059 20.1563 22.3643 18.3335L25.0148 11.9342C25.7713 10.108 27.2221 8.65704 29.0483 7.90059C30.8745 7.14414 32.9263 7.14414 34.7525 7.90059L41.1469 10.5493C42.9732 11.3039 45.0243 11.3024 46.8494 10.5451L53.2511 7.9047C55.077 7.14867 57.1284 7.14883 58.9542 7.90513C60.78 8.66143 62.2307 10.112 62.9873 11.9377L65.6386 18.3389L65.6378 18.3278Z" fill="#FCE7B0"/>
<path d="M33.0002 43.9999L40.3335 51.3333L56.8335 34.8333M65.6378 18.3278C66.3929 20.1539 67.8421 21.6054 69.667 22.3632L76.066 25.0138C77.8922 25.7703 79.3431 27.2212 80.0995 29.0475C80.8559 30.8737 80.8559 32.9256 80.0995 34.7519L77.4509 41.1465C76.6941 42.9736 76.693 45.0276 77.4532 46.8538L80.0973 53.2465C80.4723 54.151 80.6654 55.1206 80.6655 56.0997C80.6657 57.0789 80.4729 58.0485 80.0982 58.9531C79.7235 59.8578 79.1743 60.6797 78.4818 61.372C77.7893 62.0642 76.9673 62.6132 76.0625 62.9877L69.6681 65.6364C67.8421 66.3915 66.3906 67.8408 65.6329 69.6658L62.9823 76.065C62.2259 77.8912 60.775 79.3422 58.9488 80.0986C57.1227 80.8551 55.0708 80.8551 53.2446 80.0986L46.8502 77.4499C45.024 76.6953 42.9729 76.6968 41.1478 77.4542L34.7488 80.101C32.9236 80.8557 30.8735 80.8551 29.0488 80.0992C27.2242 79.3434 25.7741 77.8942 25.0171 76.0699L22.3658 69.6688C21.6108 67.8427 20.1615 66.3912 18.3366 65.6333L11.9376 62.9827C10.1122 62.2266 8.66177 60.7766 7.90506 58.9514C7.14836 57.1262 7.14733 55.0752 7.90221 53.2492L10.5509 46.8546C11.3054 45.0283 11.3039 42.9771 10.5466 41.152L7.90173 34.7481C7.52674 33.8436 7.33365 32.8741 7.3335 31.8949C7.33334 30.9157 7.52612 29.9461 7.90081 29.0415C8.27551 28.1369 8.82478 27.3149 9.51724 26.6227C10.2097 25.9304 11.0318 25.3814 11.9365 25.007L18.3309 22.3582C20.1554 21.6038 21.6059 20.1563 22.3643 18.3335L25.0148 11.9342C25.7713 10.108 27.2221 8.65704 29.0483 7.90059C30.8745 7.14414 32.9263 7.14414 34.7525 7.90059L41.1469 10.5493C42.9732 11.3039 45.0243 11.3024 46.8494 10.5451L53.2511 7.9047C55.077 7.14867 57.1284 7.14883 58.9542 7.90513C60.78 8.66143 62.2307 10.112 62.9873 11.9377L65.6386 18.3389L65.6378 18.3278Z" stroke="#F7B201" stroke-width="6" stroke-linecap="round" stroke-linejoin="round"/>
</svg>
