<svg width="12" height="12" viewBox="0 0 24 24" fill="none" xmlns="http://www.w3.org/2000/svg">
<path d="M17 21C17 18.2386 14.7614 16 12 16C9.23858 16 7 18.2386 7 21M12 13C10.3431 13 9 11.6569 9 10C9 8.34315 10.3431 7 12 7C13.6569 7 15 8.34315 15 10C15 11.6569 13.6569 13 12 13ZM21 6.19995V17.8C21 18.9201 21.0002 19.4802 20.7822 19.908C20.5905 20.2844 20.2841 20.5902 19.9078 20.782C19.48 21 18.9203 21 17.8002 21H6.2002C5.08009 21 4.51962 21 4.0918 20.782C3.71547 20.5902 3.40973 20.2844 3.21799 19.908C3 19.4802 3 18.9201 3 17.8V6.19995C3 5.07985 3 4.51986 3.21799 4.09204C3.40973 3.71572 3.71547 3.40973 4.0918 3.21799C4.51962 3 5.08009 3 6.2002 3H17.8002C18.9203 3 19.48 3 19.9078 3.21799C20.2841 3.40973 20.5905 3.71572 20.7822 4.09204C21.0002 4.51986 21 5.07985 21 6.19995Z" stroke="#007B82" stroke-width="2" stroke-linecap="round" stroke-linejoin="round"/>
</svg>
