<svg width="26" height="26" viewBox="0 0 26 26" fill="none" xmlns="http://www.w3.org/2000/svg">
<g clip-path="url(#clip0_819_4580)">
<path d="M16.3846 13.0056H15.8193V14.1361H16.3846C16.6955 14.1361 16.9498 13.8828 16.9498 13.5708C16.9498 13.2588 16.6955 13.0056 16.3846 13.0056Z" fill="#FFC444"/>
<path d="M25.9699 9.99177C25.8998 9.78828 25.7212 9.64134 25.5086 9.61304L17.3217 8.52778L13.5052 0.876709C13.4103 0.685676 13.2136 0.564697 12.9999 0.564697C12.7863 0.564697 12.5907 0.685676 12.4946 0.877822L8.67696 8.52778L0.491201 9.61304C0.278654 9.64128 0.0989077 9.78828 0.0299662 9.99177C-0.0389753 10.1953 0.013009 10.4202 0.165624 10.5728L6.16957 16.5768L4.53379 24.7581C4.49198 24.9706 4.57337 25.1865 4.74517 25.3188C4.91702 25.451 5.14987 25.4714 5.34095 25.3753L13.0011 21.5453L20.6612 25.3753C20.7415 25.4149 20.8274 25.4352 20.9145 25.4352C21.0354 25.4352 21.1575 25.3957 21.2581 25.3188C21.4288 25.1877 21.5114 24.9706 21.4695 24.7581L19.8337 16.5769L25.8377 10.5729C25.9868 10.4213 26.0389 10.1953 25.9699 9.99177ZM11.8265 12.6405L10.1308 17.1624C10.0483 17.3828 9.83683 17.5286 9.6017 17.5286C9.36658 17.5286 9.15515 17.3828 9.07264 17.1624L7.37692 12.6405C7.26612 12.3477 7.41423 12.0221 7.70701 11.9124C7.99756 11.805 8.32536 11.9509 8.43505 12.2425L9.6017 15.3536L10.7684 12.2425C10.878 11.9497 11.2047 11.8039 11.4964 11.9124C11.7892 12.0221 11.9361 12.3465 11.8265 12.6405ZM13.5584 16.9623C13.5584 17.2743 13.3052 17.5275 12.9931 17.5275C12.6811 17.5275 12.4279 17.2743 12.4279 16.9623V12.4404C12.4279 12.1284 12.6811 11.8751 12.9931 11.8751C13.3052 11.8751 13.5584 12.1284 13.5584 12.4404V16.9623ZM16.3846 15.2666H15.8193V16.9623C15.8193 17.2743 15.5661 17.5275 15.2541 17.5275C14.942 17.5275 14.6888 17.2743 14.6888 16.9623V12.4404C14.6888 12.1284 14.942 11.8751 15.2541 11.8751H16.3845C17.3194 11.8751 18.0802 12.6359 18.0802 13.5708C18.0803 14.5069 17.3195 15.2666 16.3846 15.2666Z" fill="#FFC444"/>
</g>
<defs>
<clipPath id="clip0_819_4580">
<rect width="26" height="26" fill="white"/>
</clipPath>
</defs>
</svg>
