<svg width="81" height="81" viewBox="0 0 81 81" fill="none" xmlns="http://www.w3.org/2000/svg">
<path d="M40.4998 79.3865C50.8868 79.3865 60.652 75.3416 67.9965 67.9969C75.3412 60.6522 79.3862 50.8869 79.3862 40.5C79.3862 30.1131 75.3412 20.3478 67.9965 13.0031C60.652 5.65838 50.8868 1.61354 40.4998 1.61354C30.1127 1.61354 20.3476 5.65838 13.003 13.0031C5.65832 20.3478 1.61332 30.1131 1.61332 40.5C1.61332 50.8869 5.65832 60.6522 13.003 67.9969C20.3476 75.3416 30.1127 79.3865 40.4998 79.3865ZM40.4998 11.4168C56.5363 11.4168 69.583 24.4634 69.583 40.5C69.583 56.5365 56.5363 69.5832 40.4998 69.5832C24.4632 69.5832 11.4166 56.5365 11.4166 40.5C11.4166 24.4634 24.4632 11.4168 40.4998 11.4168Z" fill="#E6E6E6"/>
<path d="M40.5 81C51.318 81 61.4884 76.7874 69.1377 69.1379C76.7874 61.4882 81 51.3177 81 40.5C81 29.6823 76.7874 19.5118 69.1377 11.8621C61.4884 4.21265 51.318 0 40.5 0C29.682 0 19.5116 4.21265 11.8623 11.8621C4.21265 19.5118 0 29.6823 0 40.5C0 51.3177 4.21265 61.4882 11.8623 69.1379C19.5116 76.7874 29.682 81 40.5 81ZM40.5 3.22709C50.4559 3.22709 59.8159 7.10412 66.8558 14.144C73.8959 21.1842 77.7729 30.5441 77.7729 40.5C77.7729 50.4559 73.8959 59.8158 66.8558 66.856C59.8159 73.8959 50.4559 77.7729 40.5 77.7729C30.5441 77.7729 21.1841 73.8959 14.1442 66.856C7.10412 59.8158 3.22709 50.4559 3.22709 40.5C3.22709 30.5441 7.10412 21.1842 14.1442 14.144C21.1841 7.10412 30.5441 3.22709 40.5 3.22709ZM40.5 71.1967C57.4263 71.1967 71.1967 57.4263 71.1967 40.5C71.1967 23.5737 57.4263 9.80326 40.5 9.80326C23.5737 9.80326 9.80326 23.5737 9.80326 40.5C9.80326 57.4263 23.5737 71.1967 40.5 71.1967ZM40.5 13.0304C55.6468 13.0304 67.9696 25.3532 67.9696 40.5C67.9696 55.6468 55.6468 67.9697 40.5 67.9697C25.3532 67.9697 13.0303 55.6468 13.0303 40.5C13.0303 25.3532 25.3532 13.0304 40.5 13.0304Z" fill="black"/>
<path d="M25.6554 42.4363C24.7644 42.4363 24.0418 41.7139 24.0418 40.8227C24.0418 39.9316 24.7644 39.2092 25.6554 39.2092H39.0478V17.2649C39.0478 16.3738 39.7704 15.6514 40.6614 15.6514C41.5524 15.6514 42.2749 16.3738 42.2749 17.2649V40.8227C42.2749 41.7139 41.5524 42.4363 40.6614 42.4363H25.6554Z" fill="black"/>
<path d="M40.6614 65.3486C50.5627 65.3486 59.4409 59.4506 63.2791 50.3228C63.6247 49.5013 63.2388 48.5553 62.4171 48.2098C61.5963 47.8647 60.65 48.2502 60.3044 49.0718C56.9708 56.9991 49.2606 62.1215 40.6614 62.1215C39.7704 62.1215 39.0478 62.8439 39.0478 63.7351C39.0478 64.6262 39.7704 65.3486 40.6614 65.3486Z" fill="black"/>
<path d="M63.3268 45.825C64.1132 45.825 64.8022 45.2492 64.9208 44.4479C65.0975 43.2558 65.187 42.0363 65.187 40.8227C65.187 39.9316 64.4645 39.2092 63.5735 39.2092C62.6825 39.2092 61.9599 39.9316 61.9599 40.8227C61.9599 41.8783 61.8821 42.9389 61.7285 43.9746C61.5978 44.8561 62.2065 45.6766 63.0881 45.8073C63.1681 45.8192 63.2479 45.825 63.3268 45.825Z" fill="black"/>
</svg>
